<svg width="48" height="48" viewBox="0 0 48 48" fill="none" xmlns="http://www.w3.org/2000/svg">
<path d="M19.0346 0H2.37932C1.06526 0 0 1.06526 0 2.37932V19.0346C0 20.3486 1.06526 21.4139 2.37932 21.4139H19.0346C20.3486 21.4139 21.4139 20.3486 21.4139 19.0346V2.37932C21.4139 1.06526 20.3486 0 19.0346 0Z" fill="#D84764"/>
<path d="M19.0348 26.1726H2.37956C1.0655 26.1726 0.000244141 27.2378 0.000244141 28.5519V45.2071C0.000244141 46.5212 1.0655 47.5864 2.37956 47.5864H19.0348C20.3489 47.5864 21.4141 46.5212 21.4141 45.2071V28.5519C21.4141 27.2378 20.3489 26.1726 19.0348 26.1726Z" fill="#D84764"/>
<path d="M45.2064 0.000152588H28.5512C27.2371 0.000152588 26.1719 1.06541 26.1719 2.37947V19.0347C26.1719 20.3488 27.2371 21.414 28.5512 21.414H45.2064C46.5205 21.414 47.5857 20.3488 47.5857 19.0347V2.37947C47.5857 1.06541 46.5205 0.000152588 45.2064 0.000152588Z" fill="#D84764"/>
<path d="M45.2064 26.1726H28.5512C27.2371 26.1726 26.1719 27.2378 26.1719 28.5519V45.2071C26.1719 46.5212 27.2371 47.5864 28.5512 47.5864H45.2064C46.5205 47.5864 47.5857 46.5212 47.5857 45.2071V28.5519C47.5857 27.2378 46.5205 26.1726 45.2064 26.1726Z" fill="#D84764"/>
</svg>
