<svg width="50" height="50" viewBox="0 0 50 50" fill="none" xmlns="http://www.w3.org/2000/svg">
<path d="M20.0346 1H3.37932C2.06526 1 1 2.06526 1 3.37932V20.0346C1 21.3486 2.06526 22.4139 3.37932 22.4139H20.0346C21.3486 22.4139 22.4139 21.3486 22.4139 20.0346V3.37932C22.4139 2.06526 21.3486 1 20.0346 1Z" stroke="black" stroke-width="1.7304" stroke-linecap="round" stroke-linejoin="round"/>
<path d="M20.0348 27.1726H3.37956C2.0655 27.1726 1.00024 28.2379 1.00024 29.5519V46.2072C1.00024 47.5212 2.0655 48.5865 3.37956 48.5865H20.0348C21.3489 48.5865 22.4141 47.5212 22.4141 46.2072V29.5519C22.4141 28.2379 21.3489 27.1726 20.0348 27.1726Z" stroke="black" stroke-width="1.7304" stroke-linecap="round" stroke-linejoin="round"/>
<path d="M46.2064 1.00018H29.5512C28.2371 1.00018 27.1719 2.06544 27.1719 3.3795V20.0347C27.1719 21.3488 28.2371 22.4141 29.5512 22.4141H46.2064C47.5205 22.4141 48.5857 21.3488 48.5857 20.0347V3.3795C48.5857 2.06544 47.5205 1.00018 46.2064 1.00018Z" stroke="black" stroke-width="1.7304" stroke-linecap="round" stroke-linejoin="round"/>
<path d="M46.2064 27.1726H29.5512C28.2371 27.1726 27.1719 28.2379 27.1719 29.5519V46.2072C27.1719 47.5212 28.2371 48.5865 29.5512 48.5865H46.2064C47.5205 48.5865 48.5857 47.5212 48.5857 46.2072V29.5519C48.5857 28.2379 47.5205 27.1726 46.2064 27.1726Z" stroke="black" stroke-width="1.7304" stroke-linecap="round" stroke-linejoin="round"/>
</svg>
