<svg width="45" height="45" viewBox="0 0 45 45" fill="none" xmlns="http://www.w3.org/2000/svg">
<path d="M29.668 7.41748H33.3763C34.3598 7.41748 35.303 7.80818 35.9985 8.50363C36.6939 9.19907 37.0846 10.1423 37.0846 11.1258V37.0841C37.0846 38.0677 36.6939 39.0109 35.9985 39.7063C35.303 40.4018 34.3598 40.7925 33.3763 40.7925H11.1263C10.1428 40.7925 9.19956 40.4018 8.50411 39.7063C7.80867 39.0109 7.41797 38.0677 7.41797 37.0841V11.1258C7.41797 10.1423 7.80867 9.19907 8.50411 8.50363C9.19956 7.80818 10.1428 7.41748 11.1263 7.41748H14.8346" stroke="#D84764" stroke-width="3.70833" stroke-linecap="round" stroke-linejoin="round"/>
<path d="M27.8112 3.70752H16.6862C15.6622 3.70752 14.832 4.53766 14.832 5.56169V9.27002C14.832 10.294 15.6622 11.1242 16.6862 11.1242H27.8112C28.8352 11.1242 29.6654 10.294 29.6654 9.27002V5.56169C29.6654 4.53766 28.8352 3.70752 27.8112 3.70752Z" stroke="#D84764" stroke-width="3.70833" stroke-linecap="round" stroke-linejoin="round"/>
<path d="M18.4805 20.3643H28.2856" stroke="#D84764" stroke-width="1.50847" stroke-linecap="round" stroke-linejoin="round"/>
<path d="M18.4805 24.8911H28.2856" stroke="#D84764" stroke-width="1.50847" stroke-linecap="round" stroke-linejoin="round"/>
<path d="M18.4805 29.4155H28.2856" stroke="#D84764" stroke-width="1.50847" stroke-linecap="round" stroke-linejoin="round"/>
<path d="M14.707 20.3643H14.7147" stroke="#D84764" stroke-width="1.50847" stroke-linecap="round" stroke-linejoin="round"/>
<path d="M14.707 24.8911H14.7147" stroke="#D84764" stroke-width="1.50847" stroke-linecap="round" stroke-linejoin="round"/>
<path d="M14.707 29.4155H14.7147" stroke="#D84764" stroke-width="1.50847" stroke-linecap="round" stroke-linejoin="round"/>
</svg>
