<svg width="47" height="43" viewBox="0 0 47 43" fill="none" xmlns="http://www.w3.org/2000/svg">
<rect x="0.865" y="0.865" width="45.1836" height="41.27" rx="4.06393" fill="#D84764" stroke="#D84764" stroke-width="1.73"/>
<path d="M0.865 4.92893C0.865 2.68448 2.68448 0.865 4.92893 0.865H41.8959C44.1404 0.865 45.9599 2.68448 45.9599 4.92893V10.9644H0.865V4.92893Z" fill="#D84764" stroke="#D84764" stroke-width="1.73"/>
<path d="M14.3177 18.5532H9.43089C8.62163 18.5532 7.96484 17.8964 7.96484 17.0871C7.96484 16.2779 8.62163 15.6211 9.43089 15.6211H14.3177C15.127 15.6211 15.7838 16.2779 15.7838 17.0871C15.7838 17.8964 15.127 18.5532 14.3177 18.5532Z" fill="white"/>
<path d="M37.7789 18.5532H23.1184C22.3091 18.5532 21.6523 17.8964 21.6523 17.0871C21.6523 16.2779 22.3091 15.6211 23.1184 15.6211H37.7789C38.5881 15.6211 39.2449 16.2779 39.2449 17.0871C39.2449 17.8964 38.5881 18.5532 37.7789 18.5532Z" fill="white"/>
<path d="M14.3177 26.3716H9.43089C8.62163 26.3716 7.96484 25.7148 7.96484 24.9055C7.96484 24.0962 8.62163 23.4395 9.43089 23.4395H14.3177C15.127 23.4395 15.7838 24.0962 15.7838 24.9055C15.7838 25.7148 15.127 26.3716 14.3177 26.3716Z" fill="white"/>
<path d="M37.7789 26.3716H23.1184C22.3091 26.3716 21.6523 25.7148 21.6523 24.9055C21.6523 24.0962 22.3091 23.4395 23.1184 23.4395H37.7789C38.5881 23.4395 39.2449 24.0962 39.2449 24.9055C39.2449 25.7148 38.5881 26.3716 37.7789 26.3716Z" fill="white"/>
<path d="M14.3177 34.1909H9.43089C8.62163 34.1909 7.96484 33.5341 7.96484 32.7248C7.96484 31.9156 8.62163 31.2588 9.43089 31.2588H14.3177C15.127 31.2588 15.7838 31.9156 15.7838 32.7248C15.7838 33.5341 15.127 34.1909 14.3177 34.1909Z" fill="white"/>
<path d="M37.7789 34.1909H23.1184C22.3091 34.1909 21.6523 33.5341 21.6523 32.7248C21.6523 31.9156 22.3091 31.2588 23.1184 31.2588H37.7789C38.5881 31.2588 39.2449 31.9156 39.2449 32.7248C39.2449 33.5341 38.5881 34.1909 37.7789 34.1909Z" fill="white"/>
</svg>
