<svg width="52" height="47" viewBox="0 0 52 47" fill="none" xmlns="http://www.w3.org/2000/svg">
<rect x="0.945465" y="0.945465" width="49.3867" height="45.1091" rx="4.44197" fill="white" stroke="black" stroke-width="1.89093"/>
<path d="M0.945465 5.38744C0.945465 2.93421 2.9342 0.945465 5.38744 0.945465H45.7932C48.2465 0.945465 50.2352 2.9342 50.2352 5.38744V11.9844H0.945465V5.38744Z" fill="white" stroke="black" stroke-width="1.89093"/>
<path d="M15.6526 20.2789H10.3112C9.42663 20.2789 8.70874 19.5611 8.70874 18.6765C8.70874 17.792 9.42663 17.0741 10.3112 17.0741H15.6526C16.5371 17.0741 17.255 17.792 17.255 18.6765C17.255 19.5611 16.5371 20.2789 15.6526 20.2789Z" fill="black"/>
<path d="M41.2954 20.2789H25.2711C24.3866 20.2789 23.6687 19.5611 23.6687 18.6765C23.6687 17.792 24.3866 17.0741 25.2711 17.0741H41.2954C42.1799 17.0741 42.8978 17.792 42.8978 18.6765C42.8978 19.5611 42.1799 20.2789 41.2954 20.2789Z" fill="black"/>
<path d="M15.6526 28.8252H10.3112C9.42663 28.8252 8.70874 28.1073 8.70874 27.2228C8.70874 26.3382 9.42663 25.6204 10.3112 25.6204H15.6526C16.5371 25.6204 17.255 26.3382 17.255 27.2228C17.255 28.1073 16.5371 28.8252 15.6526 28.8252Z" fill="black"/>
<path d="M41.2954 28.8251H25.2711C24.3866 28.8251 23.6687 28.1072 23.6687 27.2227C23.6687 26.3381 24.3866 25.6202 25.2711 25.6202H41.2954C42.1799 25.6202 42.8978 26.3381 42.8978 27.2227C42.8978 28.1072 42.1799 28.8251 41.2954 28.8251Z" fill="black"/>
<path d="M15.6526 37.3716H10.3112C9.42663 37.3716 8.70874 36.6537 8.70874 35.7692C8.70874 34.8846 9.42663 34.1667 10.3112 34.1667H15.6526C16.5371 34.1667 17.255 34.8846 17.255 35.7692C17.255 36.6537 16.5371 37.3716 15.6526 37.3716Z" fill="black"/>
<path d="M41.2954 37.3715H25.2711C24.3866 37.3715 23.6687 36.6536 23.6687 35.7691C23.6687 34.8845 24.3866 34.1666 25.2711 34.1666H41.2954C42.1799 34.1666 42.8978 34.8845 42.8978 35.7691C42.8978 36.6536 42.1799 37.3715 41.2954 37.3715Z" fill="black"/>
</svg>
