<svg width="80" height="80" viewBox="0 0 80 80" fill="none" xmlns="http://www.w3.org/2000/svg">
<g clip-path="url(#clip0)">
<path d="M34.3975 7.17676V25.2529H50.8054V43.9211H63.0284L72.5987 49.6694L73.1365 43.9211H80.0007V7.17676H34.3975Z" fill="#C4C4C4"/>
<path d="M50.8045 23.6904H1.5625C0.699531 23.6904 0 24.3901 0 25.2529V64.9292C0 65.792 0.699531 66.4917 1.5625 66.4917H9.20766L9.55922 71.3731C9.59984 71.9364 9.94109 72.4337 10.4519 72.6743C10.6637 72.7742 10.8911 72.8232 11.1175 72.8232C11.4369 72.8232 11.7545 72.7253 12.0236 72.5337L20.513 66.4915H50.8045C51.6673 66.4915 52.367 65.7918 52.367 64.929V25.2529C52.367 24.3901 51.6675 23.6904 50.8045 23.6904ZM49.242 63.3667H20.0138C19.6889 63.3667 19.3723 63.4678 19.1077 63.6561L12.4764 68.3757L12.22 64.8168C12.1611 63.9996 11.4809 63.3667 10.6616 63.3667H3.125V26.8154H49.242V63.3667Z" fill="black"/>
<path d="M21.8105 43.9297C21.6738 45.1992 21.1807 46.2246 20.3311 47.0059C19.4814 47.7871 18.207 48.3047 16.5078 48.5586L22.8506 56H19.7744L13.4463 48.6025L13.7393 46.4639H15.0869C15.5654 46.4639 15.9854 46.4443 16.3467 46.4053C16.708 46.3662 17.0205 46.3125 17.2842 46.2441C17.5576 46.166 17.792 46.0732 17.9873 45.9658C18.1826 45.8486 18.3633 45.7168 18.5293 45.5703C18.959 45.1602 19.2373 44.6133 19.3643 43.9297H13.4463V41.791H19.335C19.2568 41.4102 19.1299 41.0879 18.9541 40.8242C18.7881 40.5508 18.5684 40.3066 18.2949 40.0918C18.0215 39.877 17.6602 39.7207 17.2109 39.623C16.7715 39.5254 16.1807 39.4766 15.4385 39.4766H13.4463V37.3379H26.1025V39.4766H20.4775C20.8193 39.7207 21.1025 40.043 21.3271 40.4434C21.5518 40.8438 21.708 41.293 21.7959 41.791H26.1025V43.9297H21.8105ZM32.0498 50.0967V49.3057C32.0498 48.1631 32.2256 47.2256 32.5771 46.4932C32.9287 45.751 33.583 44.9697 34.54 44.1494C35.8682 43.0264 36.7031 42.1816 37.0449 41.6152C37.3965 41.0488 37.5723 40.3652 37.5723 39.5645C37.5723 38.5684 37.25 37.8018 36.6055 37.2646C35.9707 36.7178 35.0527 36.4443 33.8516 36.4443C33.0801 36.4443 32.3281 36.5371 31.5957 36.7227C30.8633 36.8984 30.0234 37.2256 29.0762 37.7041L28.2119 35.7266C30.0576 34.7598 31.9863 34.2764 33.998 34.2764C35.8633 34.2764 37.3135 34.7354 38.3486 35.6533C39.3838 36.5713 39.9014 37.8652 39.9014 39.5352C39.9014 40.248 39.8037 40.8779 39.6084 41.4248C39.4229 41.9619 39.1445 42.4746 38.7734 42.9629C38.4023 43.4414 37.6016 44.2178 36.3711 45.292C35.3848 46.1318 34.7305 46.8301 34.4082 47.3867C34.0957 47.9434 33.9395 48.6855 33.9395 49.6133V50.0967H32.0498ZM31.332 54.4473C31.332 53.1191 31.918 52.4551 33.0898 52.4551C33.6562 52.4551 34.0908 52.626 34.3936 52.9678C34.7061 53.3096 34.8623 53.8027 34.8623 54.4473C34.8623 55.0723 34.7061 55.5605 34.3936 55.9121C34.0811 56.2539 33.6465 56.4248 33.0898 56.4248C32.582 56.4248 32.1621 56.2734 31.8301 55.9707C31.498 55.6582 31.332 55.1504 31.332 54.4473Z" fill="black"/>
</g>
<defs>
<clipPath id="clip0">
<rect width="80" height="80" fill="white"/>
</clipPath>
</defs>
</svg>
