<svg width="45" height="45" viewBox="0 0 45 45" fill="none" xmlns="http://www.w3.org/2000/svg">
<path d="M22.5 41.25C32.8553 41.25 41.25 32.8553 41.25 22.5C41.25 12.1447 32.8553 3.75 22.5 3.75C12.1447 3.75 3.75 12.1447 3.75 22.5C3.75 32.8553 12.1447 41.25 22.5 41.25Z" stroke="#D84764" stroke-width="3.75" stroke-linecap="round" stroke-linejoin="round"/>
<path d="M17.043 16.8741C17.4838 15.621 18.3539 14.5643 19.4991 13.8912C20.6444 13.2182 21.9909 12.9721 23.3002 13.1967C24.6095 13.4213 25.797 14.102 26.6525 15.1182C27.508 16.1345 27.9762 17.4207 27.9742 18.7491C27.9742 22.4991 22.3492 24.3741 22.3492 24.3741" stroke="#D84764" stroke-width="3.75" stroke-linecap="round" stroke-linejoin="round"/>
<path d="M22.5 31.875H22.5188" stroke="#D84764" stroke-width="3.75" stroke-linecap="round" stroke-linejoin="round"/>
</svg>
