<svg width="57" height="47" viewBox="0 0 57 47" fill="none" xmlns="http://www.w3.org/2000/svg">
<path d="M28.5013 14.1724C23.4402 14.1724 19.3281 18.2845 19.3281 23.3455C19.3281 28.4066 23.4402 32.5187 28.5013 32.5187C33.5623 32.5187 37.6744 28.4066 37.6744 23.3455C37.6744 18.2845 33.5623 14.1724 28.5013 14.1724ZM27.8054 20.6252C26.6666 20.6252 25.7177 21.5741 25.7177 22.7129H22.6811C22.7443 19.866 25.0218 17.5886 27.8054 17.5886V20.6252Z" fill="#BEBEBE"/>
<path d="M56.3357 21.4484C53.2358 17.5893 42.1648 5 28.5 5C14.8352 5 3.76415 17.5893 0.664262 21.4484C-0.221421 22.5239 -0.221421 24.1054 0.664262 25.2442C3.76415 29.1032 14.8352 41.6926 28.5 41.6926C42.1648 41.6926 53.2358 29.1032 56.3357 25.2442C57.2214 24.1687 57.2214 22.5871 56.3357 21.4484ZM28.5 36.6315C21.1615 36.6315 15.2148 30.6848 15.2148 23.3463C15.2148 16.0078 21.1615 10.061 28.5 10.061C35.8385 10.061 41.7852 16.0078 41.7852 23.3463C41.7852 30.6848 35.8385 36.6315 28.5 36.6315Z" fill="#BEBEBE"/>
<path d="M43 3L13 44" stroke="#BEBEBE" stroke-width="5" stroke-linecap="round"/>
</svg>
