<svg width="48" height="54" viewBox="0 0 48 54" fill="none" xmlns="http://www.w3.org/2000/svg">
<path d="M47.5859 18.6031V49.0581C47.5859 51.5563 45.5932 53.5193 43.1247 53.5193H37.1765C35.9933 53.5193 34.8586 53.0492 34.0219 52.2126C33.1853 51.376 32.7153 50.2413 32.7153 49.0581V40.1357C32.7153 37.6672 30.7226 35.6745 28.2541 35.6745H19.3318C16.8633 35.6745 14.8706 37.6672 14.8706 40.1357V48.9986C14.8706 51.4969 12.8779 53.5193 10.4094 53.5193H4.46118C1.99266 53.5193 0 51.4969 0 48.9986V18.6031C0 17.1755 0.684047 15.8372 1.81421 15.0342L21.4434 0.669177C22.871 -0.223059 24.7149 -0.223059 26.1425 0.669177L45.7717 15.0044C46.9018 15.8372 47.5859 17.1755 47.5859 18.6031Z" fill="#D84764"/>
</svg>
