<svg width="48" height="54" viewBox="0 0 48 54" fill="none" xmlns="http://www.w3.org/2000/svg">
<path d="M2.31534 15.7395L2.31539 15.7395L2.32517 15.7324L21.9274 1.38712C23.0625 0.691155 24.5238 0.691225 25.6589 1.38733L45.2584 15.701C45.259 15.7013 45.2595 15.7017 45.26 15.7021C46.1685 16.3723 46.7207 17.4518 46.7207 18.6031V49.0581C46.7207 51.0747 45.1192 52.6541 43.1247 52.6541H37.1765C36.2228 52.6541 35.3081 52.2752 34.6337 51.6008C33.9594 50.9264 33.5805 50.0118 33.5805 49.0581V40.1357C33.5805 37.1894 31.2005 34.8094 28.2541 34.8094H19.3318C16.3854 34.8094 14.0054 37.1894 14.0054 40.1357V48.9986C14.0054 51.0303 12.3889 52.6541 10.4094 52.6541H4.46118C2.48166 52.6541 0.865198 51.0303 0.865198 48.9986V18.6031C0.865198 17.4484 1.41949 16.376 2.31534 15.7395Z" stroke="black" stroke-width="1.7304"/>
</svg>
