<svg width="42" height="41" viewBox="0 0 42 41" fill="none" xmlns="http://www.w3.org/2000/svg">
<path d="M27.0598 13.0625L33.6223 6.5M37.3723 2.75L33.6223 6.5L37.3723 2.75ZM19.3536 20.7687C20.3217 21.724 21.0913 22.8613 21.6181 24.1152C22.1449 25.3691 22.4185 26.7149 22.423 28.0749C22.4276 29.435 22.1631 30.7825 21.6447 32.0399C21.1263 33.2974 20.3643 34.4398 19.4026 35.4015C18.4409 36.3632 17.2984 37.1252 16.041 37.6436C14.7836 38.162 13.4361 38.4265 12.076 38.4219C10.716 38.4174 9.37023 38.1438 8.11632 37.617C6.86241 37.0903 5.72509 36.3206 4.76984 35.3525C2.89134 33.4075 1.85189 30.8026 1.87539 28.0987C1.89889 25.3948 2.98344 22.8083 4.89546 20.8962C6.80748 18.9842 9.39399 17.8997 12.0979 17.8762C14.8018 17.8527 17.4068 18.8921 19.3517 20.7706L19.3536 20.7687ZM19.3536 20.7687L27.0598 13.0625L19.3536 20.7687ZM27.0598 13.0625L32.6848 18.6875L39.2473 12.125L33.6223 6.5L27.0598 13.0625Z" stroke="#0B868A" stroke-width="3.75" stroke-linecap="round" stroke-linejoin="round"/>
</svg>
