<svg width="167" height="167" viewBox="0 0 167 167" fill="none" xmlns="http://www.w3.org/2000/svg">
<g clip-path="url(#clip0)">
<path d="M167.001 83.5004C167.001 111.069 144.734 133.6 116.901 133.6C89.3325 133.6 66.8008 111.069 66.8008 83.5004C66.8008 55.9321 89.0674 33.4004 116.636 33.4004C144.734 33.4004 167.001 55.9321 167.001 83.5004Z" fill="#FFB600"/>
<path d="M116.901 33.4004C144.469 33.4004 167.001 55.9321 167.001 83.5004C167.001 111.069 144.734 133.6 116.901 133.6C89.3325 133.6 66.8008 111.069 66.8008 83.5004" fill="#F7981D"/>
<path d="M116.898 33.4004C144.467 33.4004 166.998 55.9321 166.998 83.5004C166.998 111.069 144.732 133.6 116.898 133.6" fill="#FF8500"/>
<path d="M49.5698 33.4004C22.2667 33.6655 0 55.9321 0 83.5004C0 111.069 22.2667 133.6 50.1 133.6C63.0889 133.6 74.7524 128.564 83.7651 120.612C85.6206 119.021 87.2111 117.165 88.8016 115.31H78.4635C77.1381 113.719 75.8127 111.864 74.7524 110.273H92.5127C93.573 108.683 94.6333 106.827 95.4286 104.972H71.8365C71.0413 103.381 70.246 101.526 69.7159 99.6702H97.2841C98.8746 94.6337 99.9349 89.3321 99.9349 83.7655C99.9349 80.0544 99.4048 76.6083 98.8746 73.1623H68.1254C68.3905 71.3067 68.9206 69.7163 69.4508 67.8607H97.019C96.4889 66.0051 95.6936 64.1496 94.8984 62.5591H71.5714C72.3667 60.7036 73.427 59.1131 74.4873 57.2575H92.2476C91.1873 55.402 89.8619 53.5464 88.2714 51.9559H78.4635C80.054 50.1004 81.6444 48.5099 83.5 46.9194C74.7524 38.702 62.8238 33.9305 49.8349 33.9305C49.8349 33.4004 49.8349 33.4004 49.5698 33.4004Z" fill="#FF5050"/>
<path d="M0 83.5005C0 111.069 22.2667 133.601 50.1 133.601C63.0889 133.601 74.7524 128.564 83.7651 120.612C85.6206 119.021 87.2111 117.166 88.8016 115.31H78.4635C77.1381 113.72 75.8127 111.864 74.7524 110.274H92.5127C93.573 108.683 94.6333 106.827 95.4286 104.972H71.8365C71.0413 103.381 70.246 101.526 69.7159 99.6703H97.2841C98.8746 94.6338 99.9349 89.3323 99.9349 83.7656C99.9349 80.0545 99.4048 76.6084 98.8746 73.1624H68.1254C68.3905 71.3069 68.9206 69.7164 69.4508 67.8608H97.019C96.4889 66.0053 95.6936 64.1497 94.8984 62.5592H71.5714C72.3667 60.7037 73.427 59.1132 74.4873 57.2577H92.2476C91.1873 55.4021 89.8619 53.5465 88.2714 51.9561H78.4635C80.054 50.1005 81.6444 48.51 83.5 46.9196C74.7524 38.7021 62.8238 33.9307 49.8349 33.9307H49.5698" fill="#E52836"/>
<path d="M50.1005 133.601C63.0894 133.601 74.7529 128.564 83.7656 120.612C85.6211 119.021 87.2116 117.166 88.8021 115.31H78.464C77.1386 113.72 75.8132 111.864 74.7529 110.274H92.5132C93.5735 108.683 94.6338 106.827 95.429 104.972H71.837C71.0417 103.381 70.2465 101.526 69.7163 99.6703H97.2846C98.8751 94.6338 99.9354 89.3323 99.9354 83.7656C99.9354 80.0545 99.4052 76.6084 98.8751 73.1624H68.1259C68.3909 71.3069 68.9211 69.7164 69.4513 67.8608H97.0195C96.4894 66.0053 95.6941 64.1497 94.8989 62.5592H71.5719C72.3671 60.7037 73.4275 59.1132 74.4878 57.2577H92.2481C91.1878 55.4021 89.8624 53.5465 88.2719 51.9561H78.464C80.0544 50.1005 81.6449 48.51 83.5005 46.9196C74.7529 38.7021 62.8243 33.9307 49.8354 33.9307H49.5703" fill="#CB2026"/>
<path d="M67.8553 96.223L68.6505 91.7166C68.3854 91.7166 67.8553 91.9817 67.3251 91.9817C65.4696 91.9817 65.2045 90.9214 65.4696 90.3912L67.06 81.1135H69.9759L70.7711 76.077H68.1203L68.6505 72.896H63.3489C63.3489 72.896 60.168 90.3912 60.168 92.5119C60.168 95.6928 62.0235 97.0182 64.4092 97.0182C65.9997 97.0182 67.3251 96.4881 67.8553 96.223Z" fill="white"/>
<path d="M69.7148 87.7404C69.7148 95.1627 74.7514 97.0182 78.9926 97.0182C82.9688 97.0182 84.5593 96.223 84.5593 96.223L85.6196 91.1865C85.6196 91.1865 82.7037 92.5119 80.0529 92.5119C74.2212 92.5119 75.2815 88.2706 75.2815 88.2706H86.1498C86.1498 88.2706 86.945 84.8246 86.945 83.4992C86.945 80.0531 85.0894 75.8119 79.2577 75.8119C73.691 75.2817 69.7148 81.1135 69.7148 87.7404ZM78.9926 80.0531C81.9085 80.0531 81.3783 83.4992 81.3783 83.7642H75.5466C75.5466 83.4992 76.0767 80.0531 78.9926 80.0531Z" fill="white"/>
<path d="M112.657 96.2225L113.718 90.3907C113.718 90.3907 111.067 91.7161 109.211 91.7161C105.5 91.7161 103.91 88.8002 103.91 85.6193C103.91 79.2574 107.091 75.8114 110.802 75.8114C113.453 75.8114 115.573 77.4018 115.573 77.4018L116.369 71.8352C116.369 71.8352 113.188 70.5098 110.272 70.5098C104.175 70.5098 98.0781 75.8114 98.0781 85.8844C98.0781 92.5114 101.259 97.0177 107.621 97.0177C109.742 97.0177 112.657 96.2225 112.657 96.2225Z" fill="white"/>
<path d="M38.7019 75.2812C34.9908 75.2812 32.34 76.3416 32.34 76.3416L31.5448 80.8479C31.5448 80.8479 33.9305 79.7876 37.3765 79.7876C39.2321 79.7876 40.8226 80.0527 40.8226 81.6432C40.8226 82.7035 40.5575 82.9686 40.5575 82.9686C40.5575 82.9686 38.967 82.9686 38.1718 82.9686C33.6654 82.9686 28.6289 84.8241 28.6289 90.9209C28.6289 95.6924 31.8099 96.7527 33.6654 96.7527C37.3765 96.7527 38.967 94.367 39.2321 94.367L38.967 96.4876H43.7384L45.8591 81.9082C45.8591 75.5463 40.5575 75.2812 38.7019 75.2812ZM39.7622 87.2098C39.7622 88.0051 39.2321 92.2463 36.0511 92.2463C34.4607 92.2463 33.9305 90.9209 33.9305 90.1257C33.9305 88.8003 34.7257 86.9447 38.7019 86.9447C39.4972 87.2098 39.7622 87.2098 39.7622 87.2098Z" fill="white"/>
<path d="M50.8937 96.7526C52.2191 96.7526 58.8461 97.0177 58.8461 89.8606C58.8461 83.2336 52.4842 84.559 52.4842 81.9082C52.4842 80.5828 53.5445 80.0526 55.4 80.0526C56.1953 80.0526 59.1112 80.3177 59.1112 80.3177L59.9064 75.5463C59.9064 75.5463 58.0508 75.0161 54.8699 75.0161C50.8937 75.0161 46.9175 76.6066 46.9175 81.9082C46.9175 88.005 53.5445 87.4748 53.5445 89.8606C53.5445 91.451 51.6889 91.7161 50.3635 91.7161C47.9778 91.7161 45.5921 90.9209 45.5921 90.9209L44.7969 95.6923C45.062 96.2225 46.3874 96.7526 50.8937 96.7526Z" fill="white"/>
<path d="M156.66 71.04L155.6 78.1972C155.6 78.1972 153.479 75.5464 150.563 75.5464C145.792 75.5464 141.551 81.3781 141.551 88.2702C141.551 92.5115 143.671 97.0178 148.178 97.0178C151.359 97.0178 153.214 94.8972 153.214 94.8972L152.949 96.7527H158.251L162.227 71.3051L156.66 71.04ZM154.275 85.0892C154.275 88.0051 152.949 91.7162 150.033 91.7162C148.178 91.7162 147.117 90.1258 147.117 87.475C147.117 83.2337 148.973 80.5829 151.359 80.5829C153.214 80.5829 154.275 81.9083 154.275 85.0892Z" fill="white"/>
<path d="M9.80604 96.4877L12.987 77.4019L13.5172 96.4877H17.2283L24.1203 77.4019L21.2045 96.4877H26.7711L31.0124 71.04H22.2648L16.9632 86.6797L16.6981 71.04H9.0108L4.76953 96.4877H9.80604Z" fill="white"/>
<path d="M91.9802 96.4877C93.5707 87.7401 93.8357 80.5829 97.5468 81.9083C98.077 78.4623 98.8722 77.1369 99.4024 75.8115C99.4024 75.8115 99.1373 75.8115 98.3421 75.8115C95.9564 75.8115 94.1008 78.9925 94.1008 78.9925L94.631 76.0766H89.5945L86.1484 96.7528H91.9802V96.4877Z" fill="white"/>
<path d="M124.85 75.2812C121.139 75.2812 118.488 76.3416 118.488 76.3416L117.693 80.8479C117.693 80.8479 120.079 79.7876 123.525 79.7876C125.381 79.7876 126.971 80.0527 126.971 81.6432C126.971 82.7035 126.706 82.9686 126.706 82.9686C126.706 82.9686 125.115 82.9686 124.32 82.9686C119.814 82.9686 114.777 84.8241 114.777 90.9209C114.777 95.6924 117.958 96.7527 119.814 96.7527C123.525 96.7527 125.115 94.367 125.381 94.367L125.115 96.4876H129.887L132.008 81.9082C132.273 75.5463 126.706 75.2812 124.85 75.2812ZM126.176 87.2098C126.176 88.0051 125.646 92.2463 122.465 92.2463C120.874 92.2463 120.344 90.9209 120.344 90.1257C120.344 88.8003 121.139 86.9447 125.115 86.9447C125.911 87.2098 125.911 87.2098 126.176 87.2098Z" fill="white"/>
<path d="M136.515 96.4877C138.106 87.7401 138.371 80.5829 142.082 81.9083C142.612 78.4623 143.407 77.1369 143.938 75.8115C143.938 75.8115 143.672 75.8115 142.877 75.8115C140.492 75.8115 138.636 78.9925 138.636 78.9925L139.166 76.0766H134.13L130.684 96.7528H136.515V96.4877Z" fill="white"/>
<path d="M59.6445 92.5119C59.6445 95.6928 61.5001 97.0182 63.8858 97.0182C65.7414 97.0182 67.3318 96.4881 67.862 96.223L68.6572 91.7166C68.3921 91.7166 67.862 91.9817 67.3318 91.9817C65.4763 91.9817 65.2112 90.9214 65.4763 90.3912L67.0668 81.1135H69.9826L70.7779 76.077H68.1271L68.6572 72.896" fill="#DCE5E5"/>
<path d="M72.3672 87.7404C72.3672 95.1627 74.7529 97.0182 78.9942 97.0182C82.9704 97.0182 84.5608 96.223 84.5608 96.223L85.6212 91.1865C85.6212 91.1865 82.7053 92.5119 80.0545 92.5119C74.2227 92.5119 75.2831 88.2706 75.2831 88.2706H86.1513C86.1513 88.2706 86.9466 84.8246 86.9466 83.4992C86.9466 80.0531 85.091 75.8119 79.2593 75.8119C73.6926 75.2817 72.3672 81.1135 72.3672 87.7404ZM78.9942 80.0531C81.91 80.0531 82.4402 83.4992 82.4402 83.7642H75.5481C75.5481 83.4992 76.0783 80.0531 78.9942 80.0531Z" fill="#DCE5E5"/>
<path d="M112.659 96.2225L113.719 90.3907C113.719 90.3907 111.069 91.7161 109.213 91.7161C105.502 91.7161 103.911 88.8002 103.911 85.6193C103.911 79.2574 107.092 75.8114 110.803 75.8114C113.454 75.8114 115.575 77.4018 115.575 77.4018L116.37 71.8352C116.37 71.8352 113.189 70.5098 110.273 70.5098C104.176 70.5098 100.73 75.8114 100.73 85.8844C100.73 92.5114 101.261 97.0177 107.623 97.0177C109.743 97.0177 112.659 96.2225 112.659 96.2225Z" fill="#DCE5E5"/>
<path d="M31.5448 81.1131C31.5448 81.1131 33.9305 80.0528 37.3765 80.0528C39.2321 80.0528 40.8226 80.3179 40.8226 81.9083C40.8226 82.9687 40.5575 83.2337 40.5575 83.2337C40.5575 83.2337 38.967 83.2337 38.1718 83.2337C33.6654 83.2337 28.6289 85.0893 28.6289 91.1861C28.6289 95.9576 31.8099 97.0179 33.6654 97.0179C37.3765 97.0179 38.967 94.6322 39.2321 94.6322L38.967 96.7528H43.7384L45.8591 82.1734C45.8591 76.0766 40.5575 75.8115 38.4368 75.8115L31.5448 81.1131ZM42.413 87.2099C42.413 88.0052 39.2321 92.2464 36.0511 92.2464C34.4607 92.2464 33.9305 90.921 33.9305 90.1258C33.9305 88.8004 34.7257 86.9449 38.7019 86.9449C39.4972 87.2099 42.413 87.2099 42.413 87.2099Z" fill="#DCE5E5"/>
<path d="M45.0625 96.2225C45.0625 96.2225 46.653 96.7526 51.1593 96.7526C52.4847 96.7526 59.1117 97.0177 59.1117 89.8606C59.1117 83.2336 52.7498 84.559 52.7498 81.9082C52.7498 80.5828 53.8101 80.0526 55.6657 80.0526C56.4609 80.0526 59.3768 80.3177 59.3768 80.3177L60.172 75.5463C60.172 75.5463 58.3165 75.0161 55.1355 75.0161C51.1593 75.0161 49.8339 76.6066 49.8339 81.9082C49.8339 88.005 53.8101 87.4748 53.8101 89.8606C53.8101 91.451 51.9546 91.7161 50.6292 91.7161" fill="#DCE5E5"/>
<path d="M155.597 78.1972C155.597 78.1972 153.477 75.5464 150.561 75.5464C145.789 75.5464 144.199 81.3782 144.199 88.2703C144.199 92.5115 143.669 97.0179 148.175 97.0179C151.356 97.0179 153.212 94.8972 153.212 94.8972L152.947 96.7528H158.248L162.224 71.3052L155.597 78.1972ZM155.332 85.0893C155.332 88.0052 152.947 91.7163 150.031 91.7163C148.175 91.7163 147.115 90.1258 147.115 87.475C147.115 83.2337 148.97 80.583 151.356 80.583C153.212 80.583 155.332 81.9083 155.332 85.0893Z" fill="#DCE5E5"/>
<path d="M9.80604 96.4877L12.987 77.4019L13.5172 96.4877H17.2283L24.1203 77.4019L21.2045 96.4877H26.7711L31.0124 71.04H24.3854L16.9632 86.6797L16.6981 71.04H13.7822L4.76953 96.4877H9.80604Z" fill="#DCE5E5"/>
<path d="M86.4102 96.4877H91.9768C93.5673 87.7401 93.8324 80.583 97.5435 81.9083C98.0737 78.4623 98.8689 77.1369 99.399 75.8115C99.399 75.8115 99.134 75.8115 98.3387 75.8115C95.953 75.8115 94.0975 78.9925 94.0975 78.9925L94.6276 76.0766" fill="#DCE5E5"/>
<path d="M117.693 81.1131C117.693 81.1131 120.079 80.0528 123.525 80.0528C125.381 80.0528 126.971 80.3179 126.971 81.9083C126.971 82.9687 126.706 83.2337 126.706 83.2337C126.706 83.2337 125.115 83.2337 124.32 83.2337C119.814 83.2337 114.777 85.0893 114.777 91.1861C114.777 95.9576 117.958 97.0179 119.814 97.0179C123.525 97.0179 125.115 94.6322 125.381 94.6322L125.115 96.7528H129.887L132.008 82.1734C132.008 76.0766 126.706 75.8115 124.585 75.8115L117.693 81.1131ZM128.561 87.2099C128.561 88.0052 125.381 92.2464 122.2 92.2464C120.609 92.2464 120.079 90.921 120.079 90.1258C120.079 88.8004 120.874 86.9449 124.85 86.9449C125.911 87.2099 128.561 87.2099 128.561 87.2099Z" fill="#DCE5E5"/>
<path d="M130.945 96.4877H136.512C138.102 87.7401 138.368 80.583 142.079 81.9083C142.609 78.4623 143.404 77.1369 143.934 75.8115C143.934 75.8115 143.669 75.8115 142.874 75.8115C140.488 75.8115 138.633 78.9925 138.633 78.9925L139.163 76.0766" fill="#DCE5E5"/>
</g>
<defs>
<clipPath id="clip0">
<rect width="167" height="167" fill="white"/>
</clipPath>
</defs>
</svg>
