<svg width="86" height="86" viewBox="0 0 86 86" fill="none" xmlns="http://www.w3.org/2000/svg">
<g clip-path="url(#clip0)">
<path d="M85.9889 18.6117C85.9879 15.7969 83.6968 13.5059 80.8815 13.5048L13.0062 13.498H13.0038C11.6406 13.498 10.359 14.0288 9.39516 14.9926C8.43086 15.9569 7.90007 17.2392 7.90058 18.6033L7.90142 21.5261L5.10558 21.5258H5.10323C3.73999 21.5258 2.45822 22.0566 1.49459 23.0204C0.530278 23.985 -0.000503548 25.2673 3.58464e-07 26.6314L0.0110863 67.3876C0.0120941 70.2024 2.30302 72.4934 5.11851 72.4945L72.9938 72.5011H72.9962C74.3594 72.5011 75.641 71.9703 76.6048 71.0065C77.5691 70.0422 78.0999 68.7599 78.0994 67.3959L78.0986 64.473L80.8944 64.4732H80.8968C82.26 64.4732 83.5418 63.9424 84.5054 62.9786C85.4697 62.0143 86.0005 60.732 86 59.368L85.9889 18.6117ZM74.2293 68.6311C73.8999 68.9605 73.462 69.1417 72.996 69.1417C72.9955 69.1416 72.995 69.1416 72.9947 69.1417L5.11935 69.1352C4.15538 69.1347 3.3708 68.3503 3.37046 67.3864L3.35938 26.6302C3.35921 26.1639 3.54061 25.7255 3.87 25.3959C4.19939 25.0666 4.63728 24.8853 5.1039 24.8853H5.10474L72.9799 24.8919C73.9439 24.8924 74.7285 25.677 74.7288 26.6406L74.7399 67.3969C74.7401 67.8631 74.5588 68.3015 74.2293 68.6311ZM82.13 60.6032C81.8006 60.9326 81.3627 61.1138 80.8961 61.1138H80.8953L78.0976 61.1137L78.0882 26.6396C78.0872 23.8248 75.7961 21.5337 72.9807 21.5327L11.2608 21.5266L11.26 18.6023C11.2598 18.136 11.4412 17.6976 11.7706 17.368C12.1 17.0387 12.5379 16.8574 13.0045 16.8574H13.0051L80.8805 16.864C81.8445 16.8645 82.629 17.6489 82.6294 18.6127L82.6406 59.369C82.6408 59.8352 82.4594 60.2736 82.13 60.6032Z" fill="black"/>
<path d="M64.7077 63.2975C64.7069 60.9837 66.5818 59.1088 68.8954 59.1098L68.8908 34.9205C66.5771 34.9196 64.7007 33.0433 64.6998 30.7295H13.3908C13.3916 33.0433 11.5167 34.9181 9.20312 34.9171L9.20766 59.1065C11.5214 59.1073 13.3978 60.9837 13.3986 63.2975H64.7077Z" fill="#C4C4C4"/>
<path d="M59.7521 45.4385H54.2627C53.335 45.4385 52.583 46.1906 52.583 47.1182C52.583 48.0457 53.335 48.7979 54.2627 48.7979H59.7521C60.6798 48.7979 61.4318 48.0457 61.4318 47.1182C61.4318 46.1905 60.6798 45.4385 59.7521 45.4385Z" fill="black"/>
<path d="M24.0714 45.4385H18.582C17.6543 45.4385 16.9023 46.1906 16.9023 47.1182C16.9023 48.0457 17.6543 48.7979 18.582 48.7979H24.0714C24.9991 48.7979 25.7511 48.0457 25.7511 47.1182C25.7511 46.1905 24.9991 45.4385 24.0714 45.4385Z" fill="black"/>
<path d="M44.5078 43.9062C44.3255 45.599 43.668 46.9661 42.5352 48.0078C41.4023 49.0495 39.7031 49.7396 37.4375 50.0781L45.8945 60H41.793L33.3555 50.1367L33.7461 47.2852H35.543C36.181 47.2852 36.7409 47.2591 37.2227 47.207C37.7044 47.1549 38.1211 47.0833 38.4727 46.9922C38.8372 46.888 39.1497 46.7643 39.4102 46.6211C39.6706 46.4648 39.9115 46.2891 40.1328 46.0938C40.7057 45.5469 41.0768 44.8177 41.2461 43.9062H33.3555V41.0547H41.207C41.1029 40.5469 40.9336 40.1172 40.6992 39.7656C40.4779 39.401 40.1849 39.0755 39.8203 38.7891C39.4557 38.5026 38.974 38.2943 38.375 38.1641C37.7891 38.0339 37.0013 37.9688 36.0117 37.9688H33.3555V35.1172H50.2305V37.9688H42.7305C43.1862 38.2943 43.5638 38.724 43.8633 39.2578C44.1628 39.7917 44.3711 40.3906 44.4883 41.0547H50.2305V43.9062H44.5078Z" fill="black"/>
</g>
<defs>
<clipPath id="clip0">
<rect width="86" height="86" fill="white"/>
</clipPath>
</defs>
</svg>
