<svg width="50" height="55" viewBox="0 0 50 55" fill="none" xmlns="http://www.w3.org/2000/svg">
<path d="M40.6549 16.862C40.6549 12.6551 38.9837 8.62056 36.009 5.64586C33.0344 2.67117 28.9998 1 24.7929 1C20.5861 1 16.5515 2.67117 13.5768 5.64586C10.6021 8.62056 8.93098 12.6551 8.93098 16.862C8.93098 35.3676 1 40.6549 1 40.6549H48.5859C48.5859 40.6549 40.6549 35.3676 40.6549 16.862Z" stroke="black" stroke-width="1.81692" stroke-linecap="round" stroke-linejoin="round"/>
<path d="M35.7822 47C34.6754 48.908 33.0868 50.4918 31.1754 51.5927C29.264 52.6937 27.0969 53.2731 24.8911 53.2731C22.6853 53.2731 20.5182 52.6937 18.6068 51.5927C16.6954 50.4918 15.1068 48.908 14 47" stroke="black" stroke-width="1.82" stroke-linecap="round" stroke-linejoin="round"/>
</svg>
