<svg width="48" height="53" viewBox="0 0 48 53" fill="none" xmlns="http://www.w3.org/2000/svg">
<path d="M39.6549 15.862C39.6549 11.6551 37.9837 7.62056 35.009 4.64586C32.0344 1.67117 27.9998 0 23.7929 0C19.5861 0 15.5515 1.67117 12.5768 4.64586C9.60215 7.62056 7.93098 11.6551 7.93098 15.862C7.93098 34.3676 0 39.6549 0 39.6549H47.5859C47.5859 39.6549 39.6549 34.3676 39.6549 15.862Z" fill="#D84764"/>
<path d="M34.7822 46C33.6754 47.908 32.0868 49.4918 30.1754 50.5927C28.264 51.6937 26.0969 52.2731 23.8911 52.2731C21.6853 52.2731 19.5182 51.6937 17.6068 50.5927C15.6954 49.4918 14.1068 47.908 13 46" fill="#D84764"/>
</svg>
