<svg width="64" height="64" viewBox="0 0 64 64" fill="none" xmlns="http://www.w3.org/2000/svg">
<path d="M24.6714 20.5801H39.1843V31.2333H24.6714V20.5801Z" fill="#C4C4C4"/>
<path d="M9.29639 49.3467H23.8093V60.4321H9.29639V49.3467Z" fill="#C4C4C4"/>
<path d="M40.0464 49.3467H54.5593V60.4448H40.0464V49.3467Z" fill="#C4C4C4"/>
<path d="M23.7794 35.8467C23.0892 35.8467 22.5294 36.4063 22.5294 37.0967V38.6677H10.6079V37.0967C10.6079 36.4063 10.0482 35.8467 9.35791 35.8467C8.66766 35.8467 8.10791 36.4063 8.10791 37.0967V39.9177C8.10791 40.6081 8.66766 41.1677 9.35791 41.1677H23.7794C24.4697 41.1677 25.0294 40.6081 25.0294 39.9177V37.0967C25.0294 36.4063 24.4698 35.8467 23.7794 35.8467Z" fill="black"/>
<path d="M60.3358 30.7501H48.4344C48.5579 30.3831 48.625 29.9904 48.625 29.5823V5.65127C48.625 3.62877 46.9796 1.9834 44.9571 1.9834H19.0429C17.0204 1.9834 15.375 3.6289 15.375 5.65127V29.5823C15.375 29.9904 15.442 30.3831 15.5656 30.7501H3.66788C1.64538 30.7501 0 32.3955 0 34.418V58.349C0 60.3715 1.64538 62.0169 3.66788 62.0169H29.5821C30.5075 62.0169 31.3539 61.6724 31.9999 61.1049C32.6451 61.6724 33.4902 62.0169 34.4141 62.0169H60.3358C62.3561 62.0169 64 60.3698 64 58.3453V34.4218C64 32.3973 62.3563 30.7501 60.3358 30.7501ZM17.875 29.5823V5.65127C17.875 5.00727 18.3989 4.4834 19.0429 4.4834H44.9571C45.601 4.4834 46.125 5.00727 46.125 5.65127V29.5823C46.125 30.2263 45.6011 30.7501 44.9571 30.7501H19.0429C18.3989 30.7501 17.875 30.2263 17.875 29.5823ZM30.75 58.349C30.75 58.993 30.2261 59.5169 29.5821 59.5169H3.66788C3.024 59.5169 2.5 58.993 2.5 58.349V34.418C2.5 33.774 3.02387 33.2501 3.66788 33.2501H29.5821C30.226 33.2501 30.75 33.774 30.75 34.418V58.349ZM61.5 58.3453C61.5 58.9913 60.9777 59.5169 60.3358 59.5169H34.4142C33.7723 59.5169 33.25 58.9913 33.25 58.3453V34.4218C33.25 33.7758 33.7723 33.2501 34.4142 33.2501H60.3359C60.9779 33.2501 61.5001 33.7758 61.5001 34.4218V58.3453H61.5Z" fill="black"/>
<path d="M54.5294 35.8467C53.8392 35.8467 53.2794 36.4063 53.2794 37.0967V38.6677H41.3579V37.0967C41.3579 36.4063 40.7982 35.8467 40.1079 35.8467C39.4175 35.8467 38.8579 36.4063 38.8579 37.0967V39.9177C38.8579 40.6081 39.4175 41.1677 40.1079 41.1677H54.5294C55.2198 41.1677 55.7794 40.6081 55.7794 39.9177V37.0967C55.7794 36.4063 55.2198 35.8467 54.5294 35.8467Z" fill="black"/>
<path d="M40.4044 11.1512V8.33008C40.4044 7.6397 39.8448 7.08008 39.1544 7.08008C38.4642 7.08008 37.9044 7.6397 37.9044 8.33008V9.90108H25.9829V8.33008C25.9829 7.6397 25.4232 7.08008 24.7329 7.08008C24.0427 7.08008 23.4829 7.6397 23.4829 8.33008V11.1511C23.4829 11.8415 24.0427 12.4011 24.7329 12.4011H39.1544C39.8448 12.4012 40.4044 11.8415 40.4044 11.1512Z" fill="black"/>
</svg>
