<svg width="306" height="293" viewBox="0 0 306 293" fill="none" xmlns="http://www.w3.org/2000/svg">
<path d="M58.4741 38.8651C62.5225 37.0161 66.4108 35.021 69.7977 32.5565C82.1082 23.5973 90.5739 6.12702 105.364 1.32496C119.634 -3.30834 136.685 5.69806 152.5 5.69806C168.315 5.69806 185.366 -3.30834 199.636 1.32496C214.426 6.12702 222.892 23.5973 235.202 32.5565C247.636 41.6052 266.833 44.3201 275.882 56.7539C284.841 69.0644 281.549 88.1168 286.352 102.907C290.985 117.176 305 130.584 305 146.399C305 162.213 290.985 175.621 286.352 189.891C281.55 204.681 284.842 223.733 275.882 236.044C266.833 248.477 247.635 251.192 235.202 260.241C222.892 269.2 214.426 286.671 199.636 291.473C185.366 296.106 168.315 287.1 152.5 287.1C136.685 287.1 119.634 296.106 105.364 291.473C90.5739 286.671 82.1082 269.2 69.7977 260.241C57.3639 251.192 38.1667 248.477 29.118 236.044C20.1588 223.733 23.4506 204.681 18.6486 189.891C14.0147 175.621 0 162.213 0 146.399C0 130.584 14.0147 117.176 18.648 102.907C23.45 88.1168 20.1588 69.0644 29.118 56.7539C31.9728 52.8313 35.8378 49.8764 40.1814 47.3843" fill="#01BC79"/>
<path d="M276.128 146.399C276.128 159.219 264.767 170.088 261.011 181.656C257.118 193.646 259.787 209.09 252.524 219.07C245.188 229.149 229.626 231.35 219.547 238.686C209.567 245.949 202.705 260.111 190.716 264.004C179.148 267.76 165.324 260.459 152.505 260.459C139.685 260.459 125.862 267.76 114.294 264.004C102.304 260.111 95.442 245.949 85.4624 238.686C75.3832 231.35 59.8209 229.15 52.4849 219.07C45.222 209.09 47.8903 193.646 43.9977 181.657C40.2413 170.089 28.8809 159.22 28.8809 146.4C28.8809 133.58 40.242 122.71 43.9977 111.142C47.8903 99.1529 45.222 83.7084 52.4849 73.7293C59.8203 63.6502 75.3826 61.4495 85.4624 54.1136C95.442 46.8507 102.304 32.6887 114.294 28.7955C125.862 25.0392 139.685 32.3401 152.505 32.3401C165.324 32.3401 179.148 25.0392 190.716 28.7949C202.705 32.6875 209.567 46.85 219.547 54.113C229.626 61.4483 245.189 63.649 252.524 73.7287C259.787 83.7084 257.119 99.1529 261.012 111.142C264.767 122.71 276.128 133.579 276.128 146.399Z" fill="#F5F5F5"/>
<path d="M286.359 102.908C281.557 88.1184 284.848 69.066 275.889 56.7555C266.84 44.3217 247.642 41.6068 235.209 32.558C222.899 23.5989 214.433 6.12859 199.643 1.32653C193.601 -0.634802 187.061 -0.14938 180.327 1.0608C180.629 1.1461 180.932 1.22895 181.233 1.32653C196.022 6.12859 204.488 23.5989 216.799 32.558C229.232 41.6068 248.43 44.3217 257.478 56.7555C266.437 69.066 263.146 88.1184 267.948 102.908C272.582 117.177 286.596 130.586 286.596 146.4C286.596 162.215 272.582 175.623 267.948 189.893C263.146 204.682 266.438 223.735 257.478 236.045C248.43 248.479 229.232 251.194 216.799 260.243C204.488 269.202 196.022 286.672 181.233 291.474C180.932 291.572 180.629 291.655 180.326 291.741C187.06 292.95 193.601 293.436 199.643 291.474C214.433 286.672 222.899 269.202 235.209 260.243C247.643 251.194 266.84 248.479 275.889 236.045C284.848 223.735 281.557 204.682 286.359 189.893C290.992 175.623 305.007 162.215 305.007 146.4C305.007 130.586 290.992 117.177 286.359 102.908Z" fill="#36868E"/>
<path d="M261.014 111.144C257.122 99.1541 259.79 83.7096 252.527 73.7305C245.192 63.6514 229.629 61.4501 219.55 54.1154C209.57 46.8525 202.708 32.6899 190.718 28.7973C185.17 26.9955 179.102 27.7393 172.876 28.9992C184.514 33.1489 191.319 46.9684 201.139 54.1154C211.218 61.4507 226.781 63.6514 234.117 73.7305C241.379 83.7102 238.711 99.1547 242.604 111.144C246.36 122.712 257.721 133.58 257.721 146.401C257.721 159.221 246.359 170.09 242.604 181.658C238.711 193.648 241.379 209.092 234.117 219.071C226.781 229.15 211.219 231.352 201.14 238.687C191.32 245.833 184.514 259.653 172.877 263.803C179.103 265.062 185.17 265.806 190.719 264.005C202.708 260.112 209.57 245.95 219.55 238.687C229.629 231.352 245.192 229.151 252.527 219.071C259.79 209.092 257.122 193.647 261.014 181.658C264.77 170.09 276.131 159.221 276.131 146.401C276.131 133.58 264.77 122.712 261.014 111.144Z" fill="#EFE9F1"/>
<path d="M121.102 195.859L98.2531 168.367C94.8048 164.217 95.3731 158.058 99.5222 154.61L105.928 149.286C110.077 145.838 116.236 146.406 119.685 150.555L131.196 164.406C133.947 167.715 138.969 167.886 141.937 164.77L200.787 107.351C204.508 103.445 210.692 103.295 214.598 107.016L220.629 112.761C224.536 116.483 224.686 122.666 220.964 126.572L149.88 196.833C141.928 205.182 128.472 204.727 121.102 195.859Z" fill="#01BC79"/>
<path d="M220.628 112.761L214.596 107.016C210.69 103.294 204.506 103.445 200.785 107.351L198.687 109.398L202.217 112.761C206.124 116.482 206.274 122.666 202.552 126.572L131.468 196.833C130.039 198.333 128.43 199.544 126.713 200.478C134.114 204.501 143.672 203.348 149.879 196.833L220.963 126.572C224.684 122.665 224.534 116.482 220.628 112.761Z" fill="#63A992"/>
</svg>
