<svg width="45" height="45" viewBox="0 0 45 45" fill="none" xmlns="http://www.w3.org/2000/svg">
<path d="M22.5 28.125C25.6066 28.125 28.125 25.6066 28.125 22.5C28.125 19.3934 25.6066 16.875 22.5 16.875C19.3934 16.875 16.875 19.3934 16.875 22.5C16.875 25.6066 19.3934 28.125 22.5 28.125Z" stroke="black" stroke-width="3.75" stroke-linecap="round" stroke-linejoin="round"/>
<path d="M36.375 28.1252C36.1254 28.6908 36.051 29.3181 36.1612 29.9263C36.2715 30.5346 36.5615 31.0958 36.9937 31.5377L37.1063 31.6502C37.4549 31.9985 37.7315 32.4121 37.9202 32.8673C38.1089 33.3226 38.2061 33.8106 38.2061 34.3034C38.2061 34.7962 38.1089 35.2842 37.9202 35.7394C37.7315 36.1946 37.4549 36.6082 37.1063 36.9565C36.758 37.3052 36.3444 37.5818 35.8892 37.7705C35.4339 37.9592 34.9459 38.0563 34.4531 38.0563C33.9603 38.0563 33.4723 37.9592 33.0171 37.7705C32.5619 37.5818 32.1483 37.3052 31.8 36.9565L31.6875 36.844C31.2456 36.4117 30.6843 36.1218 30.0761 36.0115C29.4679 35.9012 28.8405 35.9757 28.275 36.2252C27.7204 36.4629 27.2475 36.8576 26.9143 37.3606C26.5812 37.8637 26.4024 38.4531 26.4 39.0565V39.3752C26.4 40.3698 26.0049 41.3236 25.3016 42.0269C24.5984 42.7302 23.6446 43.1252 22.65 43.1252C21.6554 43.1252 20.7016 42.7302 19.9984 42.0269C19.2951 41.3236 18.9 40.3698 18.9 39.3752V39.2065C18.8855 38.5859 18.6846 37.984 18.3235 37.4791C17.9623 36.9741 17.4576 36.5895 16.875 36.3752C16.3095 36.1257 15.6821 36.0512 15.0739 36.1615C14.4657 36.2718 13.9044 36.5617 13.4625 36.994L13.35 37.1065C13.0017 37.4552 12.5881 37.7318 12.1329 37.9205C11.6777 38.1092 11.1897 38.2063 10.6969 38.2063C10.2041 38.2063 9.71609 38.1092 9.26085 37.9205C8.80561 37.7318 8.39202 37.4552 8.04375 37.1065C7.69509 36.7582 7.41849 36.3446 7.22978 35.8894C7.04106 35.4342 6.94392 34.9462 6.94392 34.4534C6.94392 33.9606 7.04106 33.4726 7.22978 33.0173C7.41849 32.5621 7.69509 32.1485 8.04375 31.8002L8.15625 31.6877C8.58851 31.2458 8.87847 30.6846 8.98876 30.0763C9.09904 29.4681 9.02459 28.8408 8.775 28.2752C8.53732 27.7207 8.14267 27.2477 7.63962 26.9146C7.13658 26.5814 6.5471 26.4027 5.94375 26.4002H5.625C4.63044 26.4002 3.67661 26.0052 2.97335 25.3019C2.27009 24.5986 1.875 23.6448 1.875 22.6502C1.875 21.6557 2.27009 20.7019 2.97335 19.9986C3.67661 19.2953 4.63044 18.9002 5.625 18.9002H5.79375C6.41436 18.8857 7.01626 18.6848 7.52119 18.3237C8.02611 17.9626 8.41072 17.4579 8.625 16.8752C8.87459 16.3097 8.94904 15.6824 8.83876 15.0741C8.72847 14.4659 8.43851 13.9046 8.00625 13.4627L7.89375 13.3502C7.54509 13.002 7.26849 12.5884 7.07978 12.1331C6.89106 11.6779 6.79393 11.1899 6.79393 10.6971C6.79393 10.2043 6.89106 9.71634 7.07978 9.26109C7.26849 8.80585 7.54509 8.39227 7.89375 8.04399C8.24202 7.69533 8.65561 7.41874 9.11085 7.23002C9.56609 7.0413 10.0541 6.94417 10.5469 6.94417C11.0397 6.94417 11.5277 7.0413 11.9829 7.23002C12.4381 7.41874 12.8517 7.69533 13.2 8.04399L13.3125 8.15649C13.7544 8.58875 14.3157 8.87872 14.9239 8.989C15.5321 9.09929 16.1595 9.02483 16.725 8.77524H16.875C17.4296 8.53756 17.9025 8.14291 18.2357 7.63987C18.5688 7.13682 18.7476 6.54734 18.75 5.94399V5.62524C18.75 4.63068 19.1451 3.67686 19.8484 2.97359C20.5516 2.27033 21.5054 1.87524 22.5 1.87524C23.4946 1.87524 24.4484 2.27033 25.1516 2.97359C25.8549 3.67686 26.25 4.63068 26.25 5.62524V5.79399C26.2524 6.39734 26.4312 6.98682 26.7643 7.48987C27.0975 7.99291 27.5704 8.38756 28.125 8.62524C28.6905 8.87483 29.3179 8.94929 29.9261 8.839C30.5343 8.72872 31.0956 8.43875 31.5375 8.00649L31.65 7.89399C31.9983 7.54533 32.4119 7.26874 32.8671 7.08002C33.3223 6.8913 33.8103 6.79417 34.3031 6.79417C34.7959 6.79417 35.2839 6.8913 35.7392 7.08002C36.1944 7.26874 36.608 7.54533 36.9562 7.89399C37.3049 8.24227 37.5815 8.65585 37.7702 9.11109C37.9589 9.56634 38.0561 10.0543 38.0561 10.5471C38.0561 11.0399 37.9589 11.5279 37.7702 11.9831C37.5815 12.4384 37.3049 12.852 36.9562 13.2002L36.8437 13.3127C36.4115 13.7546 36.1215 14.3159 36.0112 14.9241C35.901 15.5324 35.9754 16.1597 36.225 16.7252V16.8752C36.4627 17.4298 36.8573 17.9028 37.3604 18.2359C37.8634 18.5691 38.4529 18.7478 39.0562 18.7502H39.375C40.3696 18.7502 41.3234 19.1453 42.0266 19.8486C42.7299 20.5519 43.125 21.5057 43.125 22.5002C43.125 23.4948 42.7299 24.4486 42.0266 25.1519C41.3234 25.8552 40.3696 26.2502 39.375 26.2502H39.2062C38.6029 26.2527 38.0134 26.4314 37.5104 26.7646C37.0073 27.0977 36.6127 27.5707 36.375 28.1252V28.1252Z" stroke="black" stroke-width="3.75" stroke-linecap="round" stroke-linejoin="round"/>
</svg>
