<svg width="45" height="45" viewBox="0 0 45 45" fill="none" xmlns="http://www.w3.org/2000/svg">
<path d="M30 33.75C30 36.8566 32.5184 39.375 35.625 39.375C38.7316 39.375 41.25 36.8566 41.25 33.75C41.25 30.6434 38.7316 28.125 35.625 28.125C32.5184 28.125 30 30.6434 30 33.75Z" stroke="black" stroke-width="3.75" stroke-linecap="round" stroke-linejoin="round"/>
<path d="M16.875 11.25C16.875 14.3566 19.3934 16.875 22.5 16.875C25.6066 16.875 28.125 14.3566 28.125 11.25C28.125 8.1434 25.6066 5.625 22.5 5.625C19.3934 5.625 16.875 8.1434 16.875 11.25Z" fill="black" stroke="black" stroke-width="3.75" stroke-linecap="round" stroke-linejoin="round"/>
<path d="M3.75 33.75C3.75 36.8566 6.2684 39.375 9.375 39.375C12.4816 39.375 15 36.8566 15 33.75C15 30.6434 12.4816 28.125 9.375 28.125C6.2684 28.125 3.75 30.6434 3.75 33.75Z" stroke="black" stroke-width="3.75" stroke-linecap="round" stroke-linejoin="round"/>
<path d="M19.6641 16.106L12.2016 28.9122" stroke="black" stroke-width="3.75" stroke-linecap="round" stroke-linejoin="round"/>
<path d="M32.7891 28.8935L25.3266 16.106" stroke="black" stroke-width="3.75" stroke-linecap="round" stroke-linejoin="round"/>
</svg>
