<svg width="57" height="37" viewBox="0 0 57 37" fill="none" xmlns="http://www.w3.org/2000/svg">
<path d="M28.5013 9.17236C23.4402 9.17236 19.3281 13.2845 19.3281 18.3455C19.3281 23.4066 23.4402 27.5187 28.5013 27.5187C33.5623 27.5187 37.6744 23.4066 37.6744 18.3455C37.6744 13.2845 33.5623 9.17236 28.5013 9.17236ZM27.8054 15.6252C26.6666 15.6252 25.7177 16.5741 25.7177 17.7129H22.6811C22.7443 14.866 25.0218 12.5886 27.8054 12.5886V15.6252Z" fill="#888888"/>
<path d="M56.3357 16.4484C53.2358 12.5893 42.1648 0 28.5 0C14.8352 0 3.76415 12.5893 0.664262 16.4484C-0.221421 17.5239 -0.221421 19.1054 0.664262 20.2442C3.76415 24.1032 14.8352 36.6926 28.5 36.6926C42.1648 36.6926 53.2358 24.1032 56.3357 20.2442C57.2214 19.1687 57.2214 17.5871 56.3357 16.4484ZM28.5 31.6315C21.1615 31.6315 15.2148 25.6848 15.2148 18.3463C15.2148 11.0078 21.1615 5.06104 28.5 5.06104C35.8385 5.06104 41.7852 11.0078 41.7852 18.3463C41.7852 25.6848 35.8385 31.6315 28.5 31.6315Z" fill="#888888"/>
</svg>
