<svg width="45" height="45" viewBox="0 0 45 45" fill="none" xmlns="http://www.w3.org/2000/svg">
<path d="M38.6063 25.1442L25.1625 38.588C24.8142 38.9366 24.4006 39.2132 23.9454 39.402C23.4902 39.5907 23.0022 39.6878 22.5094 39.6878C22.0166 39.6878 21.5286 39.5907 21.0734 39.402C20.6181 39.2132 20.2045 38.9366 19.8563 38.588L3.75 22.5005V3.75049H22.5L38.6063 19.8567C39.3047 20.5593 39.6967 21.5098 39.6967 22.5005C39.6967 23.4912 39.3047 24.4416 38.6063 25.1442V25.1442Z" stroke="#0B868A" stroke-width="3.75" stroke-linecap="round" stroke-linejoin="round"/>
<path d="M13.125 13.1255H13.1446" stroke="#0B868A" stroke-width="3.75" stroke-linecap="round" stroke-linejoin="round"/>
<path d="M24.0117 19.9536C23.9206 20.8 23.5918 21.4836 23.0254 22.0044C22.459 22.5252 21.6094 22.8703 20.4766 23.0396L24.7051 28.0005H22.6543L18.4355 23.0688L18.6309 21.6431H19.5293C19.8483 21.6431 20.1283 21.63 20.3691 21.604C20.61 21.578 20.8184 21.5422 20.9941 21.4966C21.1764 21.4445 21.3327 21.3826 21.4629 21.311C21.5931 21.2329 21.7135 21.145 21.8242 21.0474C22.1107 20.7739 22.2962 20.4093 22.3809 19.9536H18.4355V18.5278H22.3613C22.3092 18.2739 22.2246 18.0591 22.1074 17.8833C21.9967 17.701 21.8503 17.5382 21.668 17.395C21.4857 17.2518 21.2448 17.1476 20.9453 17.0825C20.6523 17.0174 20.2585 16.9849 19.7637 16.9849H18.4355V15.5591H26.873V16.9849H23.123C23.3509 17.1476 23.5397 17.3625 23.6895 17.6294C23.8392 17.8963 23.9434 18.1958 24.002 18.5278H26.873V19.9536H24.0117Z" fill="#0B868A"/>
</svg>
