<svg width="46" height="45" viewBox="0 0 46 45" fill="none" xmlns="http://www.w3.org/2000/svg">
<path d="M6.125 11.25H9.875H39.875" stroke="#979797" stroke-width="3.75" stroke-linecap="round" stroke-linejoin="round"/>
<path d="M15.499 11.25V7.5C15.499 6.50544 15.8941 5.55161 16.5974 4.84835C17.3006 4.14509 18.2545 3.75 19.249 3.75H26.749C27.7436 3.75 28.6974 4.14509 29.4007 4.84835C30.1039 5.55161 30.499 6.50544 30.499 7.5V11.25M36.124 11.25V37.5C36.124 38.4946 35.7289 39.4484 35.0257 40.1516C34.3224 40.8549 33.3686 41.25 32.374 41.25H13.624C12.6295 41.25 11.6756 40.8549 10.9724 40.1516C10.2691 39.4484 9.87402 38.4946 9.87402 37.5V11.25H36.124Z" stroke="#979797" stroke-width="3.75" stroke-linecap="round" stroke-linejoin="round"/>
<path d="M19.251 20.625V31.875" stroke="#979797" stroke-width="3.75" stroke-linecap="round" stroke-linejoin="round"/>
<path d="M26.749 20.625V31.875" stroke="#979797" stroke-width="3.75" stroke-linecap="round" stroke-linejoin="round"/>
</svg>
