<svg width="35" height="46" viewBox="0 0 35 46" fill="none" xmlns="http://www.w3.org/2000/svg">
<path d="M30.1863 39.6196V35.8464C30.1863 33.8449 29.3912 31.9254 27.9759 30.5101C26.5607 29.0949 24.6412 28.2998 22.6397 28.2998H9.43327C7.4318 28.2998 5.5123 29.0949 4.09705 30.5101C2.6818 31.9254 1.88672 33.8449 1.88672 35.8464V39.6196" stroke="#4B69FF" stroke-width="3.77327" stroke-linecap="round" stroke-linejoin="round"/>
<path d="M16.0387 20.7528C20.2066 20.7528 23.5853 17.3741 23.5853 13.2062C23.5853 9.03837 20.2066 5.65967 16.0387 5.65967C11.8709 5.65967 8.49219 9.03837 8.49219 13.2062C8.49219 17.3741 11.8709 20.7528 16.0387 20.7528Z" stroke="#4B69FF" stroke-width="3.77327" stroke-linecap="round" stroke-linejoin="round"/>
<path d="M11.5703 36.978L14.3374 39.7451L19.8715 34.2109" stroke="#4B69FF" stroke-width="2.76707" stroke-linecap="round" stroke-linejoin="round"/>
</svg>
