<svg width="167" height="167" viewBox="0 0 167 167" fill="none" xmlns="http://www.w3.org/2000/svg">
<path d="M61.2344 107.49L69.7169 59.7754H82.9709L74.7534 107.49H61.2344Z" fill="#3C58BF"/>
<path d="M61.2344 107.49L72.1026 59.7754H82.9709L74.7534 107.49H61.2344Z" fill="#293688"/>
<path d="M122.733 60.3052C120.082 59.2449 115.841 58.1846 110.539 58.1846C97.2853 58.1846 87.7424 64.8116 87.7424 74.3544C87.7424 81.5115 94.3694 85.2227 99.671 87.6084C104.973 89.9941 106.563 91.5846 106.563 93.7052C106.563 96.8862 102.322 98.4766 98.6107 98.4766C93.3091 98.4766 90.3932 97.6814 85.8869 95.8258L84.0313 95.0306L82.1758 105.899C85.3567 107.224 91.1885 108.55 97.2853 108.55C111.335 108.55 120.612 101.923 120.612 91.8497C120.612 86.283 117.166 82.0417 109.214 78.5957C104.442 76.21 101.527 74.8846 101.527 72.4989C101.527 70.3782 103.912 68.2576 109.214 68.2576C113.72 68.2576 116.901 69.0528 119.287 70.1131L120.612 70.6433L122.733 60.3052Z" fill="#3C58BF"/>
<path d="M122.733 60.3052C120.082 59.2449 115.841 58.1846 110.539 58.1846C97.2853 58.1846 90.1282 64.8116 90.1282 74.3544C90.1282 81.5115 94.3694 85.2227 99.671 87.6084C104.973 89.9941 106.563 91.5846 106.563 93.7052C106.563 96.8862 102.322 98.4766 98.6107 98.4766C93.3091 98.4766 90.3932 97.6814 85.8869 95.8258L84.0313 95.0306L82.1758 105.899C85.3567 107.224 91.1885 108.55 97.2853 108.55C111.335 108.55 120.612 101.923 120.612 91.8497C120.612 86.283 117.166 82.0417 109.214 78.5957C104.442 76.21 101.527 74.8846 101.527 72.4989C101.527 70.3782 103.912 68.2576 109.214 68.2576C113.72 68.2576 116.901 69.0528 119.287 70.1131L120.612 70.6433L122.733 60.3052Z" fill="#293688"/>
<path d="M145.527 59.7754C142.346 59.7754 139.96 60.0405 138.635 63.2214L118.754 107.49H133.068L135.719 99.5373H152.684L154.275 107.49H166.998L155.865 59.7754H145.527ZM139.43 91.5849C140.225 89.1992 144.732 77.5357 144.732 77.5357C144.732 77.5357 145.792 74.6198 146.587 72.7643L147.382 77.2706C147.382 77.2706 150.033 89.1992 150.563 91.85H139.43V91.5849Z" fill="#3C58BF"/>
<path d="M148.708 59.7754C145.527 59.7754 143.141 60.0405 141.816 63.2214L118.754 107.49H133.068L135.719 99.5373H152.684L154.275 107.49H166.998L155.865 59.7754H148.708ZM139.43 91.5849C140.49 88.9341 144.732 77.5357 144.732 77.5357C144.732 77.5357 145.792 74.6198 146.587 72.7643L147.382 77.2706C147.382 77.2706 150.033 89.1992 150.563 91.85H139.43V91.5849Z" fill="#293688"/>
<path d="M36.8458 93.1755L35.5204 86.2834C33.1347 78.331 25.4474 69.5834 16.9648 65.3421L28.8934 107.755H43.2077L64.6791 60.0405H50.3648L36.8458 93.1755Z" fill="#3C58BF"/>
<path d="M36.8458 93.1755L35.5204 86.2834C33.1347 78.331 25.4474 69.5834 16.9648 65.3421L28.8934 107.755H43.2077L64.6791 60.0405H53.0156L36.8458 93.1755Z" fill="#293688"/>
<path d="M0 59.7754L2.38571 60.3056C19.3508 64.2817 31.0143 74.3548 35.5206 86.2833L30.7492 63.7516C29.954 60.5706 27.5683 59.7754 24.6524 59.7754H0Z" fill="#FFBC00"/>
<path d="M0 59.7754C16.9651 63.7516 31.0143 74.0897 35.5206 86.0183L31.0143 67.1976C30.219 64.0167 27.5683 62.1611 24.6524 62.1611L0 59.7754Z" fill="#F7981D"/>
<path d="M0 59.7754C16.9651 63.7516 31.0143 74.0897 35.5206 86.0183L32.3397 75.6802C31.5444 72.4992 30.4841 69.3182 26.773 67.9929L0 59.7754Z" fill="#ED7C00"/>
<path d="M50.1003 91.5851L41.0876 82.5724L36.8463 92.6454L35.786 86.0184C33.4003 78.066 25.713 69.3184 17.2305 65.0771L29.159 107.49H43.4733L50.1003 91.5851Z" fill="#051244"/>
<path d="M74.7534 107.49L63.355 95.8262L61.2344 107.49H74.7534Z" fill="#051244"/>
<path d="M105.238 91.0552C106.298 92.1155 106.828 92.9107 106.563 93.9711C106.563 97.152 102.322 98.7425 98.6107 98.7425C93.3091 98.7425 90.3932 97.9472 85.8869 96.0917L84.0313 95.2965L82.1758 106.165C85.3567 107.49 91.1885 108.815 97.2853 108.815C105.768 108.815 112.66 106.43 116.636 102.189L105.238 91.0552Z" fill="#051244"/>
<path d="M120.609 107.49H133.068L135.719 99.5377H152.684L154.274 107.49H166.998L162.492 88.1392L146.587 72.7646L147.382 77.0059C147.382 77.0059 150.033 88.9345 150.563 91.5853H139.43C140.49 88.9345 144.732 77.5361 144.732 77.5361C144.732 77.5361 145.792 74.6202 146.587 72.7646" fill="#051244"/>
</svg>
